<svg width="251" height="81" viewBox="0 0 251 81" fill="none" xmlns="http://www.w3.org/2000/svg">
<g filter="url(#filter0_d_44_239)">
<path d="M15 40.5C15 26.4167 26.4167 15 40.5 15H210.5C224.583 15 236 26.4167 236 40.5V40.5C236 54.5833 224.583 66 210.5 66H40.5C26.4167 66 15 54.5833 15 40.5V40.5Z" fill="white" fill-opacity="0.2" shape-rendering="crispEdges"/>
<path d="M49.134 37.136V47H47.496V45.542C47.184 46.046 46.746 46.442 46.182 46.73C45.63 47.006 45.018 47.144 44.346 47.144C43.578 47.144 42.888 46.988 42.276 46.676C41.664 46.352 41.178 45.872 40.818 45.236C40.47 44.6 40.296 43.826 40.296 42.914V37.136H41.916V42.698C41.916 43.67 42.162 44.42 42.654 44.948C43.146 45.464 43.818 45.722 44.67 45.722C45.546 45.722 46.236 45.452 46.74 44.912C47.244 44.372 47.496 43.586 47.496 42.554V37.136H49.134ZM55.3917 47.162C54.6357 47.162 53.9577 47.036 53.3577 46.784C52.7577 46.52 52.2837 46.16 51.9357 45.704C51.5877 45.236 51.3957 44.702 51.3597 44.102H53.0517C53.0997 44.594 53.3277 44.996 53.7357 45.308C54.1557 45.62 54.7017 45.776 55.3737 45.776C55.9977 45.776 56.4897 45.638 56.8497 45.362C57.2097 45.086 57.3897 44.738 57.3897 44.318C57.3897 43.886 57.1977 43.568 56.8137 43.364C56.4297 43.148 55.8357 42.938 55.0317 42.734C54.2997 42.542 53.6997 42.35 53.2317 42.158C52.7757 41.954 52.3797 41.66 52.0437 41.276C51.7197 40.88 51.5577 40.364 51.5577 39.728C51.5577 39.224 51.7077 38.762 52.0077 38.342C52.3077 37.922 52.7337 37.592 53.2857 37.352C53.8377 37.1 54.4677 36.974 55.1757 36.974C56.2677 36.974 57.1497 37.25 57.8217 37.802C58.4937 38.354 58.8537 39.11 58.9017 40.07H57.2637C57.2277 39.554 57.0177 39.14 56.6337 38.828C56.2617 38.516 55.7577 38.36 55.1217 38.36C54.5337 38.36 54.0657 38.486 53.7177 38.738C53.3697 38.99 53.1957 39.32 53.1957 39.728C53.1957 40.052 53.2977 40.322 53.5017 40.538C53.7177 40.742 53.9817 40.91 54.2937 41.042C54.6177 41.162 55.0617 41.3 55.6257 41.456C56.3337 41.648 56.9097 41.84 57.3537 42.032C57.7977 42.212 58.1757 42.488 58.4877 42.86C58.8117 43.232 58.9797 43.718 58.9917 44.318C58.9917 44.858 58.8417 45.344 58.5417 45.776C58.2417 46.208 57.8157 46.55 57.2637 46.802C56.7237 47.042 56.0997 47.162 55.3917 47.162ZM70.304 41.69C70.304 42.002 70.286 42.332 70.25 42.68H62.366C62.426 43.652 62.756 44.414 63.356 44.966C63.968 45.506 64.706 45.776 65.57 45.776C66.278 45.776 66.866 45.614 67.334 45.29C67.814 44.954 68.15 44.51 68.342 43.958H70.106C69.842 44.906 69.314 45.68 68.522 46.28C67.73 46.868 66.746 47.162 65.57 47.162C64.634 47.162 63.794 46.952 63.05 46.532C62.318 46.112 61.742 45.518 61.322 44.75C60.902 43.97 60.692 43.07 60.692 42.05C60.692 41.03 60.896 40.136 61.304 39.368C61.712 38.6 62.282 38.012 63.014 37.604C63.758 37.184 64.61 36.974 65.57 36.974C66.506 36.974 67.334 37.178 68.054 37.586C68.774 37.994 69.326 38.558 69.71 39.278C70.106 39.986 70.304 40.79 70.304 41.69ZM68.612 41.348C68.612 40.724 68.474 40.19 68.198 39.746C67.922 39.29 67.544 38.948 67.064 38.72C66.596 38.48 66.074 38.36 65.498 38.36C64.67 38.36 63.962 38.624 63.374 39.152C62.798 39.68 62.468 40.412 62.384 41.348H68.612ZM74.1041 38.738C74.3921 38.174 74.8001 37.736 75.3281 37.424C75.8681 37.112 76.5221 36.956 77.2901 36.956V38.648H76.8581C75.0221 38.648 74.1041 39.644 74.1041 41.636V47H72.4661V37.136H74.1041V38.738ZM95.8418 36.956C96.6098 36.956 97.2938 37.118 97.8938 37.442C98.4938 37.754 98.9678 38.228 99.3158 38.864C99.6638 39.5 99.8378 40.274 99.8378 41.186V47H98.2178V41.42C98.2178 40.436 97.9718 39.686 97.4798 39.17C96.9998 38.642 96.3458 38.378 95.5178 38.378C94.6658 38.378 93.9878 38.654 93.4838 39.206C92.9798 39.746 92.7278 40.532 92.7278 41.564V47H91.1078V41.42C91.1078 40.436 90.8618 39.686 90.3698 39.17C89.8898 38.642 89.2358 38.378 88.4078 38.378C87.5558 38.378 86.8778 38.654 86.3738 39.206C85.8698 39.746 85.6178 40.532 85.6178 41.564V47H83.9798V37.136H85.6178V38.558C85.9418 38.042 86.3738 37.646 86.9138 37.37C87.4658 37.094 88.0718 36.956 88.7318 36.956C89.5598 36.956 90.2918 37.142 90.9278 37.514C91.5638 37.886 92.0378 38.432 92.3498 39.152C92.6258 38.456 93.0818 37.916 93.7178 37.532C94.3538 37.148 95.0618 36.956 95.8418 36.956ZM111.525 41.69C111.525 42.002 111.507 42.332 111.471 42.68H103.587C103.647 43.652 103.977 44.414 104.577 44.966C105.189 45.506 105.927 45.776 106.791 45.776C107.499 45.776 108.087 45.614 108.555 45.29C109.035 44.954 109.371 44.51 109.563 43.958H111.327C111.063 44.906 110.535 45.68 109.743 46.28C108.951 46.868 107.967 47.162 106.791 47.162C105.855 47.162 105.015 46.952 104.271 46.532C103.539 46.112 102.963 45.518 102.543 44.75C102.123 43.97 101.913 43.07 101.913 42.05C101.913 41.03 102.117 40.136 102.525 39.368C102.933 38.6 103.503 38.012 104.235 37.604C104.979 37.184 105.831 36.974 106.791 36.974C107.727 36.974 108.555 37.178 109.275 37.586C109.995 37.994 110.547 38.558 110.931 39.278C111.327 39.986 111.525 40.79 111.525 41.69ZM109.833 41.348C109.833 40.724 109.695 40.19 109.419 39.746C109.143 39.29 108.765 38.948 108.285 38.72C107.817 38.48 107.295 38.36 106.719 38.36C105.891 38.36 105.183 38.624 104.595 39.152C104.019 39.68 103.689 40.412 103.605 41.348H109.833ZM117.179 47.162C116.423 47.162 115.745 47.036 115.145 46.784C114.545 46.52 114.071 46.16 113.723 45.704C113.375 45.236 113.183 44.702 113.147 44.102H114.839C114.887 44.594 115.115 44.996 115.523 45.308C115.943 45.62 116.489 45.776 117.161 45.776C117.785 45.776 118.277 45.638 118.637 45.362C118.997 45.086 119.177 44.738 119.177 44.318C119.177 43.886 118.985 43.568 118.601 43.364C118.217 43.148 117.623 42.938 116.819 42.734C116.087 42.542 115.487 42.35 115.019 42.158C114.563 41.954 114.167 41.66 113.831 41.276C113.507 40.88 113.345 40.364 113.345 39.728C113.345 39.224 113.495 38.762 113.795 38.342C114.095 37.922 114.521 37.592 115.073 37.352C115.625 37.1 116.255 36.974 116.963 36.974C118.055 36.974 118.937 37.25 119.609 37.802C120.281 38.354 120.641 39.11 120.689 40.07H119.051C119.015 39.554 118.805 39.14 118.421 38.828C118.049 38.516 117.545 38.36 116.909 38.36C116.321 38.36 115.853 38.486 115.505 38.738C115.157 38.99 114.983 39.32 114.983 39.728C114.983 40.052 115.085 40.322 115.289 40.538C115.505 40.742 115.769 40.91 116.081 41.042C116.405 41.162 116.849 41.3 117.413 41.456C118.121 41.648 118.697 41.84 119.141 42.032C119.585 42.212 119.963 42.488 120.275 42.86C120.599 43.232 120.767 43.718 120.779 44.318C120.779 44.858 120.629 45.344 120.329 45.776C120.029 46.208 119.603 46.55 119.051 46.802C118.511 47.042 117.887 47.162 117.179 47.162ZM126.583 47.162C125.827 47.162 125.149 47.036 124.549 46.784C123.949 46.52 123.475 46.16 123.127 45.704C122.779 45.236 122.587 44.702 122.551 44.102H124.243C124.291 44.594 124.519 44.996 124.927 45.308C125.347 45.62 125.893 45.776 126.565 45.776C127.189 45.776 127.681 45.638 128.041 45.362C128.401 45.086 128.581 44.738 128.581 44.318C128.581 43.886 128.389 43.568 128.005 43.364C127.621 43.148 127.027 42.938 126.223 42.734C125.491 42.542 124.891 42.35 124.423 42.158C123.967 41.954 123.571 41.66 123.235 41.276C122.911 40.88 122.749 40.364 122.749 39.728C122.749 39.224 122.899 38.762 123.199 38.342C123.499 37.922 123.925 37.592 124.477 37.352C125.029 37.1 125.659 36.974 126.367 36.974C127.459 36.974 128.341 37.25 129.013 37.802C129.685 38.354 130.045 39.11 130.093 40.07H128.455C128.419 39.554 128.209 39.14 127.825 38.828C127.453 38.516 126.949 38.36 126.313 38.36C125.725 38.36 125.257 38.486 124.909 38.738C124.561 38.99 124.387 39.32 124.387 39.728C124.387 40.052 124.489 40.322 124.693 40.538C124.909 40.742 125.173 40.91 125.485 41.042C125.809 41.162 126.253 41.3 126.817 41.456C127.525 41.648 128.101 41.84 128.545 42.032C128.989 42.212 129.367 42.488 129.679 42.86C130.003 43.232 130.171 43.718 130.183 44.318C130.183 44.858 130.033 45.344 129.733 45.776C129.433 46.208 129.007 46.55 128.455 46.802C127.915 47.042 127.291 47.162 126.583 47.162ZM131.883 42.032C131.883 41.024 132.087 40.142 132.495 39.386C132.903 38.618 133.461 38.024 134.169 37.604C134.889 37.184 135.687 36.974 136.563 36.974C137.427 36.974 138.177 37.16 138.813 37.532C139.449 37.904 139.923 38.372 140.235 38.936V37.136H141.891V47H140.235V45.164C139.911 45.74 139.425 46.22 138.777 46.604C138.141 46.976 137.397 47.162 136.545 47.162C135.669 47.162 134.877 46.946 134.169 46.514C133.461 46.082 132.903 45.476 132.495 44.696C132.087 43.916 131.883 43.028 131.883 42.032ZM140.235 42.05C140.235 41.306 140.085 40.658 139.785 40.106C139.485 39.554 139.077 39.134 138.561 38.846C138.057 38.546 137.499 38.396 136.887 38.396C136.275 38.396 135.717 38.54 135.213 38.828C134.709 39.116 134.307 39.536 134.007 40.088C133.707 40.64 133.557 41.288 133.557 42.032C133.557 42.788 133.707 43.448 134.007 44.012C134.307 44.564 134.709 44.99 135.213 45.29C135.717 45.578 136.275 45.722 136.887 45.722C137.499 45.722 138.057 45.578 138.561 45.29C139.077 44.99 139.485 44.564 139.785 44.012C140.085 43.448 140.235 42.794 140.235 42.05ZM148.727 36.974C149.579 36.974 150.323 37.16 150.959 37.532C151.607 37.904 152.087 38.372 152.399 38.936V37.136H154.055V47.216C154.055 48.116 153.863 48.914 153.479 49.61C153.095 50.318 152.543 50.87 151.823 51.266C151.115 51.662 150.287 51.86 149.339 51.86C148.043 51.86 146.963 51.554 146.099 50.942C145.235 50.33 144.725 49.496 144.569 48.44H146.189C146.369 49.04 146.741 49.52 147.305 49.88C147.869 50.252 148.547 50.438 149.339 50.438C150.239 50.438 150.971 50.156 151.535 49.592C152.111 49.028 152.399 48.236 152.399 47.216V45.146C152.075 45.722 151.595 46.202 150.959 46.586C150.323 46.97 149.579 47.162 148.727 47.162C147.851 47.162 147.053 46.946 146.333 46.514C145.625 46.082 145.067 45.476 144.659 44.696C144.251 43.916 144.047 43.028 144.047 42.032C144.047 41.024 144.251 40.142 144.659 39.386C145.067 38.618 145.625 38.024 146.333 37.604C147.053 37.184 147.851 36.974 148.727 36.974ZM152.399 42.05C152.399 41.306 152.249 40.658 151.949 40.106C151.649 39.554 151.241 39.134 150.725 38.846C150.221 38.546 149.663 38.396 149.051 38.396C148.439 38.396 147.881 38.54 147.377 38.828C146.873 39.116 146.471 39.536 146.171 40.088C145.871 40.64 145.721 41.288 145.721 42.032C145.721 42.788 145.871 43.448 146.171 44.012C146.471 44.564 146.873 44.99 147.377 45.29C147.881 45.578 148.439 45.722 149.051 45.722C149.663 45.722 150.221 45.578 150.725 45.29C151.241 44.99 151.649 44.564 151.949 44.012C152.249 43.448 152.399 42.794 152.399 42.05ZM165.824 41.69C165.824 42.002 165.806 42.332 165.77 42.68H157.886C157.946 43.652 158.276 44.414 158.876 44.966C159.488 45.506 160.226 45.776 161.09 45.776C161.798 45.776 162.386 45.614 162.854 45.29C163.334 44.954 163.67 44.51 163.862 43.958H165.626C165.362 44.906 164.834 45.68 164.042 46.28C163.25 46.868 162.266 47.162 161.09 47.162C160.154 47.162 159.314 46.952 158.57 46.532C157.838 46.112 157.262 45.518 156.842 44.75C156.422 43.97 156.212 43.07 156.212 42.05C156.212 41.03 156.416 40.136 156.824 39.368C157.232 38.6 157.802 38.012 158.534 37.604C159.278 37.184 160.13 36.974 161.09 36.974C162.026 36.974 162.854 37.178 163.574 37.586C164.294 37.994 164.846 38.558 165.23 39.278C165.626 39.986 165.824 40.79 165.824 41.69ZM164.132 41.348C164.132 40.724 163.994 40.19 163.718 39.746C163.442 39.29 163.064 38.948 162.584 38.72C162.116 38.48 161.594 38.36 161.018 38.36C160.19 38.36 159.482 38.624 158.894 39.152C158.318 39.68 157.988 40.412 157.904 41.348H164.132ZM177.68 36.956C178.424 36.956 179.096 37.118 179.696 37.442C180.296 37.754 180.764 38.228 181.1 38.864C181.448 39.5 181.622 40.274 181.622 41.186V47H180.002V41.42C180.002 40.436 179.756 39.686 179.264 39.17C178.772 38.642 178.1 38.378 177.248 38.378C176.384 38.378 175.694 38.648 175.178 39.188C174.674 39.728 174.422 40.514 174.422 41.546V47H172.784V33.68H174.422V38.54C174.746 38.036 175.19 37.646 175.754 37.37C176.33 37.094 176.972 36.956 177.68 36.956ZM193.298 41.69C193.298 42.002 193.28 42.332 193.244 42.68H185.36C185.42 43.652 185.75 44.414 186.35 44.966C186.962 45.506 187.7 45.776 188.564 45.776C189.272 45.776 189.86 45.614 190.328 45.29C190.808 44.954 191.144 44.51 191.336 43.958H193.1C192.836 44.906 192.308 45.68 191.516 46.28C190.724 46.868 189.74 47.162 188.564 47.162C187.628 47.162 186.788 46.952 186.044 46.532C185.312 46.112 184.736 45.518 184.316 44.75C183.896 43.97 183.686 43.07 183.686 42.05C183.686 41.03 183.89 40.136 184.298 39.368C184.706 38.6 185.276 38.012 186.008 37.604C186.752 37.184 187.604 36.974 188.564 36.974C189.5 36.974 190.328 37.178 191.048 37.586C191.768 37.994 192.32 38.558 192.704 39.278C193.1 39.986 193.298 40.79 193.298 41.69ZM191.606 41.348C191.606 40.724 191.468 40.19 191.192 39.746C190.916 39.29 190.538 38.948 190.058 38.72C189.59 38.48 189.068 38.36 188.492 38.36C187.664 38.36 186.956 38.624 186.368 39.152C185.792 39.68 185.462 40.412 185.378 41.348H191.606ZM197.098 38.738C197.386 38.174 197.794 37.736 198.322 37.424C198.862 37.112 199.516 36.956 200.284 36.956V38.648H199.852C198.016 38.648 197.098 39.644 197.098 41.636V47H195.46V37.136H197.098V38.738ZM211.175 41.69C211.175 42.002 211.157 42.332 211.121 42.68H203.237C203.297 43.652 203.627 44.414 204.227 44.966C204.839 45.506 205.577 45.776 206.441 45.776C207.149 45.776 207.737 45.614 208.205 45.29C208.685 44.954 209.021 44.51 209.213 43.958H210.977C210.713 44.906 210.185 45.68 209.393 46.28C208.601 46.868 207.617 47.162 206.441 47.162C205.505 47.162 204.665 46.952 203.921 46.532C203.189 46.112 202.613 45.518 202.193 44.75C201.773 43.97 201.563 43.07 201.563 42.05C201.563 41.03 201.767 40.136 202.175 39.368C202.583 38.6 203.153 38.012 203.885 37.604C204.629 37.184 205.481 36.974 206.441 36.974C207.377 36.974 208.205 37.178 208.925 37.586C209.645 37.994 210.197 38.558 210.581 39.278C210.977 39.986 211.175 40.79 211.175 41.69ZM209.483 41.348C209.483 40.724 209.345 40.19 209.069 39.746C208.793 39.29 208.415 38.948 207.935 38.72C207.467 38.48 206.945 38.36 206.369 38.36C205.541 38.36 204.833 38.624 204.245 39.152C203.669 39.68 203.339 40.412 203.255 41.348H209.483Z" fill="white"/>
</g>
<defs>
<filter id="filter0_d_44_239" x="0" y="0" width="251" height="81" filterUnits="userSpaceOnUse" color-interpolation-filters="sRGB">
<feFlood flood-opacity="0" result="BackgroundImageFix"/>
<feColorMatrix in="SourceAlpha" type="matrix" values="0 0 0 0 0 0 0 0 0 0 0 0 0 0 0 0 0 0 127 0" result="hardAlpha"/>
<feMorphology radius="5" operator="dilate" in="SourceAlpha" result="effect1_dropShadow_44_239"/>
<feOffset/>
<feGaussianBlur stdDeviation="5"/>
<feComposite in2="hardAlpha" operator="out"/>
<feColorMatrix type="matrix" values="0 0 0 0 1 0 0 0 0 1 0 0 0 0 1 0 0 0 0.25 0"/>
<feBlend mode="normal" in2="BackgroundImageFix" result="effect1_dropShadow_44_239"/>
<feBlend mode="normal" in="SourceGraphic" in2="effect1_dropShadow_44_239" result="shape"/>
</filter>
</defs>
</svg>
