<svg width="247" height="81" viewBox="0 0 247 81" fill="none" xmlns="http://www.w3.org/2000/svg">
<g filter="url(#filter0_d_44_237)">
<path d="M15 40.5C15 26.4167 26.4167 15 40.5 15H206.5C220.583 15 232 26.4167 232 40.5V40.5C232 54.5833 220.583 66 206.5 66H40.5C26.4167 66 15 54.5833 15 40.5V40.5Z" fill="#85B6FF" fill-opacity="0.2" shape-rendering="crispEdges"/>
<path d="M39.774 42.032C39.774 41.024 39.978 40.142 40.386 39.386C40.794 38.618 41.352 38.024 42.06 37.604C42.78 37.184 43.578 36.974 44.454 36.974C45.318 36.974 46.068 37.16 46.704 37.532C47.34 37.904 47.814 38.372 48.126 38.936V37.136H49.782V47H48.126V45.164C47.802 45.74 47.316 46.22 46.668 46.604C46.032 46.976 45.288 47.162 44.436 47.162C43.56 47.162 42.768 46.946 42.06 46.514C41.352 46.082 40.794 45.476 40.386 44.696C39.978 43.916 39.774 43.028 39.774 42.032ZM48.126 42.05C48.126 41.306 47.976 40.658 47.676 40.106C47.376 39.554 46.968 39.134 46.452 38.846C45.948 38.546 45.39 38.396 44.778 38.396C44.166 38.396 43.608 38.54 43.104 38.828C42.6 39.116 42.198 39.536 41.898 40.088C41.598 40.64 41.448 41.288 41.448 42.032C41.448 42.788 41.598 43.448 41.898 44.012C42.198 44.564 42.6 44.99 43.104 45.29C43.608 45.578 44.166 45.722 44.778 45.722C45.39 45.722 45.948 45.578 46.452 45.29C46.968 44.99 47.376 44.564 47.676 44.012C47.976 43.448 48.126 42.794 48.126 42.05ZM56.2221 45.488L59.2821 37.136H61.0281L57.1581 47H55.2501L51.3801 37.136H53.1441L56.2221 45.488ZM62.0279 42.032C62.0279 41.024 62.2319 40.142 62.6399 39.386C63.0479 38.618 63.6059 38.024 64.3139 37.604C65.0339 37.184 65.8319 36.974 66.7079 36.974C67.5719 36.974 68.3219 37.16 68.9579 37.532C69.5939 37.904 70.0679 38.372 70.3799 38.936V37.136H72.0359V47H70.3799V45.164C70.0559 45.74 69.5699 46.22 68.9219 46.604C68.2859 46.976 67.5419 47.162 66.6899 47.162C65.8139 47.162 65.0219 46.946 64.3139 46.514C63.6059 46.082 63.0479 45.476 62.6399 44.696C62.2319 43.916 62.0279 43.028 62.0279 42.032ZM70.3799 42.05C70.3799 41.306 70.2299 40.658 69.9299 40.106C69.6299 39.554 69.2219 39.134 68.7059 38.846C68.2019 38.546 67.6439 38.396 67.0319 38.396C66.4199 38.396 65.8619 38.54 65.3579 38.828C64.8539 39.116 64.4519 39.536 64.1519 40.088C63.8519 40.64 63.7019 41.288 63.7019 42.032C63.7019 42.788 63.8519 43.448 64.1519 44.012C64.4519 44.564 64.8539 44.99 65.3579 45.29C65.8619 45.578 66.4199 45.722 67.0319 45.722C67.6439 45.722 68.2019 45.578 68.7059 45.29C69.2219 44.99 69.6299 44.564 69.9299 44.012C70.2299 43.448 70.3799 42.794 70.3799 42.05ZM91.4648 36.956C92.2328 36.956 92.9168 37.118 93.5168 37.442C94.1168 37.754 94.5908 38.228 94.9388 38.864C95.2868 39.5 95.4608 40.274 95.4608 41.186V47H93.8408V41.42C93.8408 40.436 93.5948 39.686 93.1028 39.17C92.6228 38.642 91.9688 38.378 91.1408 38.378C90.2888 38.378 89.6108 38.654 89.1068 39.206C88.6028 39.746 88.3508 40.532 88.3508 41.564V47H86.7308V41.42C86.7308 40.436 86.4848 39.686 85.9928 39.17C85.5128 38.642 84.8588 38.378 84.0308 38.378C83.1788 38.378 82.5008 38.654 81.9968 39.206C81.4928 39.746 81.2408 40.532 81.2408 41.564V47H79.6028V37.136H81.2408V38.558C81.5648 38.042 81.9968 37.646 82.5368 37.37C83.0888 37.094 83.6948 36.956 84.3548 36.956C85.1828 36.956 85.9148 37.142 86.5508 37.514C87.1868 37.886 87.6608 38.432 87.9728 39.152C88.2488 38.456 88.7048 37.916 89.3408 37.532C89.9768 37.148 90.6848 36.956 91.4648 36.956ZM107.148 41.69C107.148 42.002 107.13 42.332 107.094 42.68H99.2097C99.2697 43.652 99.5997 44.414 100.2 44.966C100.812 45.506 101.55 45.776 102.414 45.776C103.122 45.776 103.71 45.614 104.178 45.29C104.658 44.954 104.994 44.51 105.186 43.958H106.95C106.686 44.906 106.158 45.68 105.366 46.28C104.574 46.868 103.59 47.162 102.414 47.162C101.478 47.162 100.638 46.952 99.8937 46.532C99.1617 46.112 98.5857 45.518 98.1657 44.75C97.7457 43.97 97.5357 43.07 97.5357 42.05C97.5357 41.03 97.7397 40.136 98.1477 39.368C98.5557 38.6 99.1257 38.012 99.8577 37.604C100.602 37.184 101.454 36.974 102.414 36.974C103.35 36.974 104.178 37.178 104.898 37.586C105.618 37.994 106.17 38.558 106.554 39.278C106.95 39.986 107.148 40.79 107.148 41.69ZM105.456 41.348C105.456 40.724 105.318 40.19 105.042 39.746C104.766 39.29 104.388 38.948 103.908 38.72C103.44 38.48 102.918 38.36 102.342 38.36C101.514 38.36 100.806 38.624 100.218 39.152C99.6417 39.68 99.3117 40.412 99.2277 41.348H105.456ZM112.802 47.162C112.046 47.162 111.368 47.036 110.768 46.784C110.168 46.52 109.694 46.16 109.346 45.704C108.998 45.236 108.806 44.702 108.77 44.102H110.462C110.51 44.594 110.738 44.996 111.146 45.308C111.566 45.62 112.112 45.776 112.784 45.776C113.408 45.776 113.9 45.638 114.26 45.362C114.62 45.086 114.8 44.738 114.8 44.318C114.8 43.886 114.608 43.568 114.224 43.364C113.84 43.148 113.246 42.938 112.442 42.734C111.71 42.542 111.11 42.35 110.642 42.158C110.186 41.954 109.79 41.66 109.454 41.276C109.13 40.88 108.968 40.364 108.968 39.728C108.968 39.224 109.118 38.762 109.418 38.342C109.718 37.922 110.144 37.592 110.696 37.352C111.248 37.1 111.878 36.974 112.586 36.974C113.678 36.974 114.56 37.25 115.232 37.802C115.904 38.354 116.264 39.11 116.312 40.07H114.674C114.638 39.554 114.428 39.14 114.044 38.828C113.672 38.516 113.168 38.36 112.532 38.36C111.944 38.36 111.476 38.486 111.128 38.738C110.78 38.99 110.606 39.32 110.606 39.728C110.606 40.052 110.708 40.322 110.912 40.538C111.128 40.742 111.392 40.91 111.704 41.042C112.028 41.162 112.472 41.3 113.036 41.456C113.744 41.648 114.32 41.84 114.764 42.032C115.208 42.212 115.586 42.488 115.898 42.86C116.222 43.232 116.39 43.718 116.402 44.318C116.402 44.858 116.252 45.344 115.952 45.776C115.652 46.208 115.226 46.55 114.674 46.802C114.134 47.042 113.51 47.162 112.802 47.162ZM122.206 47.162C121.45 47.162 120.772 47.036 120.172 46.784C119.572 46.52 119.098 46.16 118.75 45.704C118.402 45.236 118.21 44.702 118.174 44.102H119.866C119.914 44.594 120.142 44.996 120.55 45.308C120.97 45.62 121.516 45.776 122.188 45.776C122.812 45.776 123.304 45.638 123.664 45.362C124.024 45.086 124.204 44.738 124.204 44.318C124.204 43.886 124.012 43.568 123.628 43.364C123.244 43.148 122.65 42.938 121.846 42.734C121.114 42.542 120.514 42.35 120.046 42.158C119.59 41.954 119.194 41.66 118.858 41.276C118.534 40.88 118.372 40.364 118.372 39.728C118.372 39.224 118.522 38.762 118.822 38.342C119.122 37.922 119.548 37.592 120.1 37.352C120.652 37.1 121.282 36.974 121.99 36.974C123.082 36.974 123.964 37.25 124.636 37.802C125.308 38.354 125.668 39.11 125.716 40.07H124.078C124.042 39.554 123.832 39.14 123.448 38.828C123.076 38.516 122.572 38.36 121.936 38.36C121.348 38.36 120.88 38.486 120.532 38.738C120.184 38.99 120.01 39.32 120.01 39.728C120.01 40.052 120.112 40.322 120.316 40.538C120.532 40.742 120.796 40.91 121.108 41.042C121.432 41.162 121.876 41.3 122.44 41.456C123.148 41.648 123.724 41.84 124.168 42.032C124.612 42.212 124.99 42.488 125.302 42.86C125.626 43.232 125.794 43.718 125.806 44.318C125.806 44.858 125.656 45.344 125.356 45.776C125.056 46.208 124.63 46.55 124.078 46.802C123.538 47.042 122.914 47.162 122.206 47.162ZM127.506 42.032C127.506 41.024 127.71 40.142 128.118 39.386C128.526 38.618 129.084 38.024 129.792 37.604C130.512 37.184 131.31 36.974 132.186 36.974C133.05 36.974 133.8 37.16 134.436 37.532C135.072 37.904 135.546 38.372 135.858 38.936V37.136H137.514V47H135.858V45.164C135.534 45.74 135.048 46.22 134.4 46.604C133.764 46.976 133.02 47.162 132.168 47.162C131.292 47.162 130.5 46.946 129.792 46.514C129.084 46.082 128.526 45.476 128.118 44.696C127.71 43.916 127.506 43.028 127.506 42.032ZM135.858 42.05C135.858 41.306 135.708 40.658 135.408 40.106C135.108 39.554 134.7 39.134 134.184 38.846C133.68 38.546 133.122 38.396 132.51 38.396C131.898 38.396 131.34 38.54 130.836 38.828C130.332 39.116 129.93 39.536 129.63 40.088C129.33 40.64 129.18 41.288 129.18 42.032C129.18 42.788 129.33 43.448 129.63 44.012C129.93 44.564 130.332 44.99 130.836 45.29C131.34 45.578 131.898 45.722 132.51 45.722C133.122 45.722 133.68 45.578 134.184 45.29C134.7 44.99 135.108 44.564 135.408 44.012C135.708 43.448 135.858 42.794 135.858 42.05ZM144.35 36.974C145.202 36.974 145.946 37.16 146.582 37.532C147.23 37.904 147.71 38.372 148.022 38.936V37.136H149.678V47.216C149.678 48.116 149.486 48.914 149.102 49.61C148.718 50.318 148.166 50.87 147.446 51.266C146.738 51.662 145.91 51.86 144.962 51.86C143.666 51.86 142.586 51.554 141.722 50.942C140.858 50.33 140.348 49.496 140.192 48.44H141.812C141.992 49.04 142.364 49.52 142.928 49.88C143.492 50.252 144.17 50.438 144.962 50.438C145.862 50.438 146.594 50.156 147.158 49.592C147.734 49.028 148.022 48.236 148.022 47.216V45.146C147.698 45.722 147.218 46.202 146.582 46.586C145.946 46.97 145.202 47.162 144.35 47.162C143.474 47.162 142.676 46.946 141.956 46.514C141.248 46.082 140.69 45.476 140.282 44.696C139.874 43.916 139.67 43.028 139.67 42.032C139.67 41.024 139.874 40.142 140.282 39.386C140.69 38.618 141.248 38.024 141.956 37.604C142.676 37.184 143.474 36.974 144.35 36.974ZM148.022 42.05C148.022 41.306 147.872 40.658 147.572 40.106C147.272 39.554 146.864 39.134 146.348 38.846C145.844 38.546 145.286 38.396 144.674 38.396C144.062 38.396 143.504 38.54 143 38.828C142.496 39.116 142.094 39.536 141.794 40.088C141.494 40.64 141.344 41.288 141.344 42.032C141.344 42.788 141.494 43.448 141.794 44.012C142.094 44.564 142.496 44.99 143 45.29C143.504 45.578 144.062 45.722 144.674 45.722C145.286 45.722 145.844 45.578 146.348 45.29C146.864 44.99 147.272 44.564 147.572 44.012C147.872 43.448 148.022 42.794 148.022 42.05ZM161.447 41.69C161.447 42.002 161.429 42.332 161.393 42.68H153.509C153.569 43.652 153.899 44.414 154.499 44.966C155.111 45.506 155.849 45.776 156.713 45.776C157.421 45.776 158.009 45.614 158.477 45.29C158.957 44.954 159.293 44.51 159.485 43.958H161.249C160.985 44.906 160.457 45.68 159.665 46.28C158.873 46.868 157.889 47.162 156.713 47.162C155.777 47.162 154.937 46.952 154.193 46.532C153.461 46.112 152.885 45.518 152.465 44.75C152.045 43.97 151.835 43.07 151.835 42.05C151.835 41.03 152.039 40.136 152.447 39.368C152.855 38.6 153.425 38.012 154.157 37.604C154.901 37.184 155.753 36.974 156.713 36.974C157.649 36.974 158.477 37.178 159.197 37.586C159.917 37.994 160.469 38.558 160.853 39.278C161.249 39.986 161.447 40.79 161.447 41.69ZM159.755 41.348C159.755 40.724 159.617 40.19 159.341 39.746C159.065 39.29 158.687 38.948 158.207 38.72C157.739 38.48 157.217 38.36 156.641 38.36C155.813 38.36 155.105 38.624 154.517 39.152C153.941 39.68 153.611 40.412 153.527 41.348H159.755ZM173.303 36.956C174.047 36.956 174.719 37.118 175.319 37.442C175.919 37.754 176.387 38.228 176.723 38.864C177.071 39.5 177.245 40.274 177.245 41.186V47H175.625V41.42C175.625 40.436 175.379 39.686 174.887 39.17C174.395 38.642 173.723 38.378 172.871 38.378C172.007 38.378 171.317 38.648 170.801 39.188C170.297 39.728 170.045 40.514 170.045 41.546V47H168.407V33.68H170.045V38.54C170.369 38.036 170.813 37.646 171.377 37.37C171.953 37.094 172.595 36.956 173.303 36.956ZM188.921 41.69C188.921 42.002 188.903 42.332 188.867 42.68H180.983C181.043 43.652 181.373 44.414 181.973 44.966C182.585 45.506 183.323 45.776 184.187 45.776C184.895 45.776 185.483 45.614 185.951 45.29C186.431 44.954 186.767 44.51 186.959 43.958H188.723C188.459 44.906 187.931 45.68 187.139 46.28C186.347 46.868 185.363 47.162 184.187 47.162C183.251 47.162 182.411 46.952 181.667 46.532C180.935 46.112 180.359 45.518 179.939 44.75C179.519 43.97 179.309 43.07 179.309 42.05C179.309 41.03 179.513 40.136 179.921 39.368C180.329 38.6 180.899 38.012 181.631 37.604C182.375 37.184 183.227 36.974 184.187 36.974C185.123 36.974 185.951 37.178 186.671 37.586C187.391 37.994 187.943 38.558 188.327 39.278C188.723 39.986 188.921 40.79 188.921 41.69ZM187.229 41.348C187.229 40.724 187.091 40.19 186.815 39.746C186.539 39.29 186.161 38.948 185.681 38.72C185.213 38.48 184.691 38.36 184.115 38.36C183.287 38.36 182.579 38.624 181.991 39.152C181.415 39.68 181.085 40.412 181.001 41.348H187.229ZM192.721 38.738C193.009 38.174 193.417 37.736 193.945 37.424C194.485 37.112 195.139 36.956 195.907 36.956V38.648H195.475C193.639 38.648 192.721 39.644 192.721 41.636V47H191.083V37.136H192.721V38.738ZM206.798 41.69C206.798 42.002 206.78 42.332 206.744 42.68H198.86C198.92 43.652 199.25 44.414 199.85 44.966C200.462 45.506 201.2 45.776 202.064 45.776C202.772 45.776 203.36 45.614 203.828 45.29C204.308 44.954 204.644 44.51 204.836 43.958H206.6C206.336 44.906 205.808 45.68 205.016 46.28C204.224 46.868 203.24 47.162 202.064 47.162C201.128 47.162 200.288 46.952 199.544 46.532C198.812 46.112 198.236 45.518 197.816 44.75C197.396 43.97 197.186 43.07 197.186 42.05C197.186 41.03 197.39 40.136 197.798 39.368C198.206 38.6 198.776 38.012 199.508 37.604C200.252 37.184 201.104 36.974 202.064 36.974C203 36.974 203.828 37.178 204.548 37.586C205.268 37.994 205.82 38.558 206.204 39.278C206.6 39.986 206.798 40.79 206.798 41.69ZM205.106 41.348C205.106 40.724 204.968 40.19 204.692 39.746C204.416 39.29 204.038 38.948 203.558 38.72C203.09 38.48 202.568 38.36 201.992 38.36C201.164 38.36 200.456 38.624 199.868 39.152C199.292 39.68 198.962 40.412 198.878 41.348H205.106Z" fill="white"/>
</g>
<defs>
<filter id="filter0_d_44_237" x="0" y="0" width="247" height="81" filterUnits="userSpaceOnUse" color-interpolation-filters="sRGB">
<feFlood flood-opacity="0" result="BackgroundImageFix"/>
<feColorMatrix in="SourceAlpha" type="matrix" values="0 0 0 0 0 0 0 0 0 0 0 0 0 0 0 0 0 0 127 0" result="hardAlpha"/>
<feMorphology radius="5" operator="dilate" in="SourceAlpha" result="effect1_dropShadow_44_237"/>
<feOffset/>
<feGaussianBlur stdDeviation="5"/>
<feComposite in2="hardAlpha" operator="out"/>
<feColorMatrix type="matrix" values="0 0 0 0 0.521569 0 0 0 0 0.713726 0 0 0 0 1 0 0 0 0.2 0"/>
<feBlend mode="normal" in2="BackgroundImageFix" result="effect1_dropShadow_44_237"/>
<feBlend mode="normal" in="SourceGraphic" in2="effect1_dropShadow_44_237" result="shape"/>
</filter>
</defs>
</svg>
